<svg xmlns="http://www.w3.org/2000/svg" width="22" height="17" viewBox="0 0 22 17">
    <path fill-rule="evenodd" clip-rule="evenodd" d="M16 7C16 4.23858 13.7614 2 11 2C8.23858 2 6 4.23858 6 7H16ZM18 7H21C21.5523 7 22 7.44772 22 8C22 8.55229 21.5523 9 21 9H1C0.447716 9 0 8.55229 0 8C0 7.44772 0.447715 7 1 7H4C4 3.13401 7.13401 0 11 0C14.866 0 18 3.13401 18 7ZM4 12C4 11.4477 4.44772 11 5 11H17C17.5523 11 18 11.4477 18 12C18 12.5523 17.5523 13 17 13H5C4.44772 13 4 12.5523 4 12ZM7 15C6.44772 15 6 15.4477 6 16C6 16.5523 6.44772 17 7 17H15C15.5523 17 16 16.5523 16 16C16 15.4477 15.5523 15 15 15H7Z" />
</svg>