<svg xmlns="http://www.w3.org/2000/svg" width="22" height="20" viewBox="0 0 22 20">
    <path fill-rule="evenodd" clip-rule="evenodd" d="M11 4C11.5295 4 12 3.59707 12 3.06754V0.95878C12 0.441275 11.6049 0.0043674 11.0874 0.000340014C11.0583 0.000113477 11.0292 0 11 0C10.9708 0 10.9417 0.000113476 10.9126 0.000340012C10.3951 0.0043674 10 0.441275 10 0.95878V3.06754C10 3.59707 10.4705 4 11 4ZM15.9017 4.6841C15.5273 5.05849 15.5754 5.67586 15.9497 6.05024C16.3241 6.42463 16.9415 6.4727 17.3159 6.09832L18.8074 4.60678C19.1732 4.24102 19.203 3.65295 18.8401 3.28429C18.799 3.24248 18.7575 3.20099 18.7157 3.15984C18.347 2.797 17.759 2.82681 17.3932 3.19257L15.9017 4.6841ZM3.19257 4.60678C2.82681 4.24102 2.797 3.65295 3.15984 3.28429C3.20099 3.24248 3.24248 3.20099 3.28429 3.15984C3.65295 2.797 4.24102 2.82681 4.60678 3.19257L6.09832 4.6841C6.4727 5.05849 6.42463 5.67586 6.05024 6.05024C5.67586 6.42463 5.05849 6.4727 4.6841 6.09832L3.19257 4.60678ZM11 8C12.3062 8 13.4175 8.83481 13.8293 10H8.17071C8.58254 8.83481 9.69378 8 11 8ZM21 10H15.9C15.4367 7.71776 13.419 6 11 6C8.58104 6 6.56329 7.71776 6.10002 10H1C0.447715 10 0 10.4477 0 11C0 11.5523 0.447716 12 1 12H21C21.5523 12 22 11.5523 22 11C22 10.4477 21.5523 10 21 10ZM5 14C4.44772 14 4 14.4477 4 15C4 15.5523 4.44772 16 5 16H17C17.5523 16 18 15.5523 18 15C18 14.4477 17.5523 14 17 14H5ZM6 19C6 18.4477 6.44772 18 7 18H15C15.5523 18 16 18.4477 16 19C16 19.5523 15.5523 20 15 20H7C6.44772 20 6 19.5523 6 19Z" />
</svg>