<svg xmlns="http://www.w3.org/2000/svg" width="22" height="22" viewBox="0 0 22 22">
    <path fill-rule="evenodd" clip-rule="evenodd" d="M12 3.06754C12 3.59707 11.5295 4 11 4C10.4705 4 10 3.59707 10 3.06754V0.95878C10 0.441275 10.3951 0.00436742 10.9126 0.000340015C10.9417 0.000113478 10.9708 0 11 0C11.0292 0 11.0583 0.000113478 11.0874 0.000340016C11.6049 0.00436743 12 0.441275 12 0.95878V3.06754ZM6 11C6 13.7614 8.23858 16 11 16C13.7614 16 16 13.7614 16 11C16 8.23858 13.7614 6 11 6C8.23858 6 6 8.23858 6 11ZM14 11C14 12.6569 12.6569 14 11 14C9.34315 14 8 12.6569 8 11C8 9.34315 9.34315 8 11 8C12.6569 8 14 9.34315 14 11ZM11.0874 21.9997C11.6049 21.9956 12 21.5587 12 21.0412V18.9325C12 18.4029 11.5295 18 11 18C10.4705 18 10 18.4029 10 18.9325V21.0412C10 21.5587 10.3951 21.9956 10.9126 21.9997C10.9417 21.9999 10.9708 22 11 22C11.0292 22 11.0583 21.9999 11.0874 21.9997ZM18 11C18 10.4705 18.4029 10 18.9325 10H21.0412C21.5587 10 21.9956 10.3951 21.9997 10.9126C21.9999 10.9417 22 10.9708 22 11C22 11.0292 21.9999 11.0583 21.9997 11.0874C21.9956 11.6049 21.5587 12 21.0412 12H18.9325C18.4029 12 18 11.5295 18 11ZM4 11C4 10.4705 3.59707 10 3.06754 10H0.95878C0.441275 10 0.00436742 10.3951 0.000340015 10.9126C0.000113478 10.9417 0 10.9708 0 11C0 11.0292 0.000113478 11.0583 0.000340016 11.0874C0.00436743 11.6049 0.441275 12 0.95878 12H3.06754C3.59707 12 4 11.5295 4 11ZM15.9497 6.05025C15.5754 5.67587 15.5273 5.0585 15.9017 4.68411L17.3932 3.19258C17.759 2.82681 18.347 2.79701 18.7157 3.15985C18.7575 3.201 18.799 3.24248 18.8402 3.2843C19.203 3.65296 19.1732 4.24103 18.8074 4.60679L17.3159 6.09832C16.9415 6.47271 16.3241 6.42464 15.9497 6.05025ZM3.15985 3.2843C2.79701 3.65296 2.82682 4.24103 3.19258 4.60679L4.68411 6.09833C5.0585 6.47271 5.67587 6.42464 6.05025 6.05025C6.42464 5.67587 6.47271 5.05849 6.09832 4.68411L4.60679 3.19258C4.24103 2.82681 3.65296 2.79701 3.2843 3.15985C3.24249 3.201 3.201 3.24249 3.15985 3.2843ZM15.9497 15.9497C16.3241 15.5754 16.9415 15.5273 17.3159 15.9017L18.8074 17.3932C19.1732 17.759 19.203 18.347 18.8402 18.7157C18.799 18.7575 18.7575 18.799 18.7157 18.8402C18.347 19.203 17.759 19.1732 17.3932 18.8074L15.9017 17.3159C15.5273 16.9415 15.5754 16.3241 15.9497 15.9497ZM3.2843 18.8402C3.65296 19.203 4.24103 19.1732 4.60679 18.8074L6.09832 17.3159C6.47271 16.9415 6.42464 16.3241 6.05025 15.9497C5.67587 15.5754 5.0585 15.5273 4.68411 15.9017L3.19258 17.3932C2.82681 17.759 2.79701 18.347 3.15985 18.7157C3.201 18.7575 3.24248 18.799 3.2843 18.8402Z" />
</svg>